<svg width="20" height="20" viewBox="0 0 20 20" fill="none" xmlns="http://www.w3.org/2000/svg">
<path d="M18.6133 17.8907C18.562 17.9548 18.4986 18.0082 18.4267 18.0479C18.3547 18.0875 18.2757 18.1126 18.1941 18.1216C18.1124 18.1307 18.0298 18.1236 17.951 18.1007C17.8721 18.0779 17.7985 18.0397 17.7344 17.9883C17.7055 17.9649 14.7016 15.625 10 15.625C5.29844 15.625 2.29375 17.9688 2.26563 17.9891C2.20145 18.0404 2.1278 18.0786 2.04889 18.1014C1.96997 18.1242 1.88732 18.1313 1.80567 18.1222C1.64077 18.1038 1.48993 18.0207 1.38633 17.8911C1.28273 17.7614 1.23486 17.596 1.25325 17.4311C1.27163 17.2662 1.35477 17.1154 1.48438 17.0118C1.61172 16.9102 4.49375 14.6477 9.16328 14.3985C8.92038 13.4307 8.83361 12.4303 8.90625 11.4352C9.04219 9.7391 9.75938 7.47972 12.2656 5.77269C11.838 5.66664 11.3983 5.617 10.9578 5.62504C9.47344 5.67347 8.54063 6.53988 8.10625 8.27504C8.07275 8.41054 7.99486 8.53093 7.88498 8.61701C7.77511 8.7031 7.63958 8.74993 7.5 8.75004C7.44889 8.7503 7.39795 8.744 7.34844 8.73129C7.18766 8.69107 7.04945 8.58864 6.96418 8.44653C6.87891 8.30442 6.85358 8.13426 6.89375 7.97347C7.61641 5.08676 9.48047 4.42504 10.9172 4.37972C11.4878 4.36731 12.0575 4.43169 12.6109 4.57113C12.3117 4.0766 11.8742 3.56097 11.2664 3.3016C10.4852 2.97035 9.53438 3.11488 8.42969 3.73207C8.28465 3.81288 8.11345 3.83276 7.95375 3.78734C7.79405 3.74192 7.65893 3.63492 7.57813 3.48988C7.49732 3.34484 7.47744 3.17364 7.52286 3.01394C7.56827 2.85424 7.67527 2.71913 7.82031 2.63832C9.28438 1.82191 10.6109 1.65863 11.7641 2.15394C12.7398 2.57269 13.3836 3.38676 13.7852 4.10707C14.268 3.35394 14.8695 2.84379 15.5344 2.62738C16.4609 2.32504 17.4594 2.57113 18.5031 3.35941C18.6295 3.4613 18.7113 3.60839 18.7312 3.76953C18.7511 3.93067 18.7074 4.09321 18.6096 4.22276C18.5117 4.3523 18.3673 4.43868 18.2068 4.4636C18.0464 4.48853 17.8826 4.45004 17.75 4.35629C17.0539 3.83051 16.4398 3.64847 15.9258 3.81488C15.3563 3.99847 14.9203 4.59613 14.6469 5.11254C15.209 5.2265 15.7499 5.42762 16.25 5.70863C17.3914 6.36097 18.75 7.74379 18.75 10.6258C18.75 10.7916 18.6842 10.9505 18.5669 11.0678C18.4497 11.185 18.2908 11.2508 18.125 11.2508C17.9592 11.2508 17.8003 11.185 17.6831 11.0678C17.5658 10.9505 17.5 10.7916 17.5 10.6258C17.5 8.79301 16.8695 7.50082 15.625 6.79769C15.48 6.71536 15.33 6.64229 15.1758 6.57894C15.5693 7.37897 15.7073 8.28065 15.5711 9.16176C15.4729 9.81363 15.2369 10.4371 14.8789 10.9907C14.7831 11.125 14.638 11.216 14.4754 11.2439C14.3127 11.2717 14.1457 11.234 14.0106 11.1391C13.8756 11.0443 13.7836 10.8998 13.7547 10.7373C13.7258 10.5749 13.7623 10.4076 13.8563 10.2719C13.9141 10.1868 15.132 8.36722 13.6016 6.41488C11.4922 7.60316 10.3289 9.32504 10.1516 11.5391C10.0825 12.4983 10.1838 13.4621 10.4508 14.386C15.3453 14.5274 18.382 16.9118 18.5133 17.0157C18.6421 17.1188 18.7248 17.2686 18.7436 17.4326C18.7623 17.5965 18.7155 17.7611 18.6133 17.8907ZM1.875 10.9375C1.875 10.5049 2.0033 10.082 2.24366 9.72223C2.48403 9.36249 2.82567 9.08212 3.22538 8.91655C3.6251 8.75098 4.06493 8.70766 4.48926 8.79207C4.9136 8.87647 5.30337 9.08481 5.6093 9.39074C5.91523 9.69667 6.12356 10.0864 6.20797 10.5108C6.29238 10.9351 6.24906 11.3749 6.08349 11.7747C5.91792 12.1744 5.63754 12.516 5.27781 12.7564C4.91808 12.9967 4.49515 13.125 4.0625 13.125C3.48234 13.125 2.92594 12.8946 2.51571 12.4843C2.10547 12.0741 1.875 11.5177 1.875 10.9375ZM3.125 10.9375C3.125 11.123 3.17999 11.3042 3.283 11.4584C3.38601 11.6126 3.53243 11.7327 3.70374 11.8037C3.87504 11.8746 4.06354 11.8932 4.2454 11.857C4.42726 11.8208 4.5943 11.7316 4.72541 11.6004C4.85653 11.4693 4.94581 11.3023 4.98199 11.1204C5.01816 10.9386 4.9996 10.7501 4.92864 10.5788C4.85768 10.4075 4.73752 10.261 4.58335 10.158C4.42918 10.055 4.24792 10 4.0625 10C3.81386 10 3.5754 10.0988 3.39959 10.2746C3.22377 10.4504 3.125 10.6889 3.125 10.9375Z" fill="#171717" fill-opacity="0.4"/>
</svg>
